<svg version="1.1" id="Layer_1" xmlns="http://www.w3.org/2000/svg" xmlns:xlink="http://www.w3.org/1999/xlink" x="0px" y="0px"
	 width="100%" viewBox="0 0 512 512" enable-background="new 0 0 512 512" xml:space="preserve">
<path fill="#CC6699" opacity="1.000000" stroke="none" 
	d="
M289.000000,513.000000 
	C267.979095,513.000000 246.958206,513.000000 225.735901,512.627258 
	C224.688507,511.839569 223.878159,511.178558 222.990707,511.050079 
	C217.650421,510.276947 212.206787,510.017273 206.954834,508.867950 
	C180.638992,503.108917 155.454895,494.339844 131.866791,481.046143 
	C105.073181,465.945831 81.879295,446.650024 61.832844,423.391113 
	C45.427654,404.356964 32.095348,383.414185 22.106138,360.386353 
	C12.483821,338.204315 5.454783,315.268036 2.917498,291.096039 
	C2.837993,290.338623 1.663834,289.696075 0.999998,289.000000 
	C1.000000,267.645782 1.000000,246.291550 1.363094,224.754700 
	C2.503800,220.475067 3.239431,216.369583 4.065781,212.282425 
	C9.769958,184.069412 18.712772,157.072006 32.945904,131.863495 
	C48.049477,105.113350 67.297768,81.936607 90.525909,61.915916 
	C109.576454,45.495968 130.534409,32.147179 153.574020,22.114971 
	C175.766571,12.451599 198.753632,5.564947 222.911346,2.917774 
	C223.668518,2.834803 224.306458,1.663775 225.000000,0.999996 
	C246.020889,1.000000 267.041779,1.000000 288.265961,1.374273 
	C289.481506,2.164565 290.459381,2.789340 291.511627,2.962887 
	C298.586029,4.129651 305.792725,4.716784 312.740326,6.389718 
	C337.490967,12.349512 361.253662,20.868267 383.431061,33.686840 
	C399.640015,43.055634 415.130676,53.458439 428.576691,66.380432 
	C440.221283,77.571136 451.241943,89.565033 461.363708,102.148781 
	C475.191589,119.340118 485.838837,138.559875 494.135162,159.108810 
	C502.520355,179.877914 508.793579,201.116776 511.104340,223.454712 
	C511.163757,224.029037 512.343018,224.487503 513.000000,225.000000 
	C513.000000,246.020889 513.000000,267.041779 512.626648,288.264160 
	C511.836670,289.478577 511.210724,290.456970 511.037109,291.509949 
	C509.870667,298.583801 509.277313,305.787750 507.612885,312.737488 
	C501.722290,337.333282 493.253357,360.947235 480.587372,383.001282 
	C471.521271,398.787262 461.497437,413.965515 449.037506,427.118317 
	C437.478729,439.319824 424.983948,450.805695 411.874664,461.327606 
	C391.705048,477.516327 369.030548,489.600006 344.547516,498.175690 
	C326.997803,504.322815 309.225250,509.452820 290.598480,511.102753 
	C290.014221,511.154510 289.530548,512.341980 289.000000,513.000000 
M411.637238,96.920868 
	C404.953156,86.449142 395.385620,79.404305 384.331085,74.234985 
	C367.254333,66.249596 349.042572,63.444946 330.403900,63.219372 
	C300.635010,62.859089 272.343048,69.792953 244.881195,80.891464 
	C206.002640,96.603966 169.416824,116.104866 138.336548,144.753433 
	C121.641136,160.142593 107.626038,177.509628 98.972366,198.850906 
	C91.938698,216.197006 93.192444,232.696732 102.985909,248.539612 
	C105.694466,252.921265 108.328468,257.541504 111.901222,261.158875 
	C121.127396,270.500214 130.254532,280.109558 140.529831,288.204651 
	C155.955109,300.357025 172.342087,311.286926 188.278290,322.794556 
	C190.453751,324.365509 192.388062,326.270416 194.758163,328.297974 
	C192.701691,329.432892 191.407318,330.170654 190.092270,330.869507 
	C170.330353,341.370972 151.300323,352.956970 134.564240,367.993958 
	C122.440407,378.886932 113.759911,391.644440 111.372665,408.219727 
	C107.804161,432.996765 121.448502,449.513733 146.271439,450.086670 
	C182.733276,450.928223 216.938873,425.306488 226.918060,389.490326 
	C232.049454,371.073212 232.017624,352.686218 225.369339,334.239868 
	C227.040787,333.766785 228.436142,333.268768 229.873550,332.980743 
	C247.028336,329.543671 264.036407,330.419952 280.792877,335.230255 
	C291.050049,338.174805 300.162964,343.250214 307.263153,351.462250 
	C321.191284,367.571472 319.019714,384.990143 301.700897,397.230713 
	C300.306580,398.216187 299.572021,400.135101 298.530914,401.620300 
	C300.351593,401.802582 302.347107,402.563782 303.965210,402.075195 
	C316.435272,398.309875 326.348694,385.258453 327.030243,372.230225 
	C327.553406,362.229248 324.910431,353.071777 319.631653,344.692719 
	C310.462860,330.139008 297.033508,321.293854 280.642548,317.053497 
	C259.998627,311.712891 239.360046,313.512512 218.789795,318.026855 
	C217.044647,318.409821 214.485855,318.082062 213.181854,317.014008 
	C200.434113,306.573029 187.740967,296.056305 175.300827,285.251923 
	C165.510773,276.749115 155.322906,268.509491 146.687027,258.915100 
	C130.992783,241.478897 129.407227,221.411041 138.971359,200.302094 
	C145.944000,184.912766 157.151413,172.824570 169.948456,162.239334 
	C199.245895,138.005600 232.179749,120.013161 267.796906,106.983269 
	C292.908203,97.796745 318.805023,92.827126 345.712250,95.023582 
	C356.249329,95.883728 366.476837,98.119514 375.852356,103.255287 
	C387.875824,109.841553 393.707916,120.581627 391.309113,134.032593 
	C389.956085,141.619675 387.463165,149.217804 384.181976,156.199142 
	C378.510406,168.266327 369.554352,178.039078 359.457550,186.642853 
	C332.643036,209.492249 301.256287,221.355896 266.390198,223.643433 
	C248.665451,224.806335 231.789536,221.481613 218.750565,207.618744 
	C217.900833,206.715302 216.167969,206.642502 214.845901,206.183319 
	C214.424744,207.657745 213.415253,209.249329 213.681625,210.586807 
	C215.019104,217.302734 219.404709,222.120987 224.405365,226.406921 
	C236.224533,236.536819 250.343399,240.268982 265.514801,240.993851 
	C291.749420,242.247314 317.051697,237.535187 341.175873,227.582275 
	C375.521729,213.412201 400.909668,189.599747 414.306122,154.487625 
	C421.563263,135.466522 422.555969,116.126656 411.637238,96.920868 
z"/>
<path fill="#000000" opacity="1.000000" stroke="none" 
	d="
M513.000000,224.531342 
	C512.343018,224.487503 511.163757,224.029037 511.104340,223.454712 
	C508.793579,201.116776 502.520355,179.877914 494.135162,159.108810 
	C485.838837,138.559875 475.191589,119.340118 461.363708,102.148781 
	C451.241943,89.565033 440.221283,77.571136 428.576691,66.380432 
	C415.130676,53.458439 399.640015,43.055634 383.431061,33.686840 
	C361.253662,20.868267 337.490967,12.349512 312.740326,6.389718 
	C305.792725,4.716784 298.586029,4.129651 291.511627,2.962887 
	C290.459381,2.789340 289.481506,2.164565 288.734619,1.374273 
	C363.593719,1.000000 438.187408,1.000000 513.000000,1.000000 
	C513.000000,75.354088 513.000000,149.708389 513.000000,224.531342 
z"/>
<path fill="#000000" opacity="1.000000" stroke="none" 
	d="
M0.999998,289.468658 
	C1.663834,289.696075 2.837993,290.338623 2.917498,291.096039 
	C5.454783,315.268036 12.483821,338.204315 22.106138,360.386353 
	C32.095348,383.414185 45.427654,404.356964 61.832844,423.391113 
	C81.879295,446.650024 105.073181,465.945831 131.866791,481.046143 
	C155.454895,494.339844 180.638992,503.108917 206.954834,508.867950 
	C212.206787,510.017273 217.650421,510.276947 222.990707,511.050079 
	C223.878159,511.178558 224.688507,511.839569 225.267242,512.627258 
	C150.406296,513.000000 75.812599,513.000000 1.000000,513.000000 
	C1.000000,438.645905 1.000000,364.291626 0.999998,289.468658 
z"/>
<path fill="#000000" opacity="1.000000" stroke="none" 
	d="
M289.468628,513.000000 
	C289.530548,512.341980 290.014221,511.154510 290.598480,511.102753 
	C309.225250,509.452820 326.997803,504.322815 344.547516,498.175690 
	C369.030548,489.600006 391.705048,477.516327 411.874664,461.327606 
	C424.983948,450.805695 437.478729,439.319824 449.037506,427.118317 
	C461.497437,413.965515 471.521271,398.787262 480.587372,383.001282 
	C493.253357,360.947235 501.722290,337.333282 507.612885,312.737488 
	C509.277313,305.787750 509.870667,298.583801 511.037109,291.509949 
	C511.210724,290.456970 511.836670,289.478577 512.626648,288.732849 
	C513.000000,363.593719 513.000000,438.187408 513.000000,513.000000 
	C438.645905,513.000000 364.291626,513.000000 289.468628,513.000000 
z"/>
<path fill="#000000" opacity="1.000000" stroke="none" 
	d="
M224.531342,0.999996 
	C224.306458,1.663775 223.668518,2.834803 222.911346,2.917774 
	C198.753632,5.564947 175.766571,12.451599 153.574020,22.114971 
	C130.534409,32.147179 109.576454,45.495968 90.525909,61.915916 
	C67.297768,81.936607 48.049477,105.113350 32.945904,131.863495 
	C18.712772,157.072006 9.769958,184.069412 4.065781,212.282425 
	C3.239431,216.369583 2.503800,220.475067 1.363094,224.286041 
	C1.000000,149.739456 1.000000,75.478920 1.000000,1.000000 
	C75.354088,1.000000 149.708389,1.000000 224.531342,0.999996 
z"/>
<path fill="#FFFEFE" opacity="1.000000" stroke="none" 
	d="
M411.827881,97.230804 
	C422.555969,116.126656 421.563263,135.466522 414.306122,154.487625 
	C400.909668,189.599747 375.521729,213.412201 341.175873,227.582275 
	C317.051697,237.535187 291.749420,242.247314 265.514801,240.993851 
	C250.343399,240.268982 236.224533,236.536819 224.405365,226.406921 
	C219.404709,222.120987 215.019104,217.302734 213.681625,210.586807 
	C213.415253,209.249329 214.424744,207.657745 214.845886,206.183319 
	C216.167969,206.642502 217.900833,206.715302 218.750565,207.618744 
	C231.789536,221.481613 248.665451,224.806335 266.390198,223.643433 
	C301.256287,221.355896 332.643036,209.492249 359.457550,186.642853 
	C369.554352,178.039078 378.510406,168.266327 384.181976,156.199142 
	C387.463165,149.217804 389.956085,141.619675 391.309113,134.032593 
	C393.707916,120.581627 387.875824,109.841553 375.852356,103.255287 
	C366.476837,98.119514 356.249329,95.883728 345.712250,95.023582 
	C318.805023,92.827126 292.908203,97.796745 267.796906,106.983269 
	C232.179749,120.013161 199.245895,138.005600 169.948456,162.239334 
	C157.151413,172.824570 145.944000,184.912766 138.971359,200.302094 
	C129.407227,221.411041 130.992783,241.478897 146.687027,258.915100 
	C155.322906,268.509491 165.510773,276.749115 175.300827,285.251923 
	C187.740967,296.056305 200.434113,306.573029 213.181854,317.014008 
	C214.485855,318.082062 217.044647,318.409821 218.789795,318.026855 
	C239.360046,313.512512 259.998627,311.712891 280.642548,317.053497 
	C297.033508,321.293854 310.462860,330.139008 319.631653,344.692719 
	C324.910431,353.071777 327.553406,362.229248 327.030243,372.230225 
	C326.348694,385.258453 316.435272,398.309875 303.965210,402.075195 
	C302.347107,402.563782 300.351593,401.802582 298.530914,401.620300 
	C299.572021,400.135101 300.306580,398.216187 301.700897,397.230713 
	C319.019714,384.990143 321.191284,367.571472 307.263153,351.462250 
	C300.162964,343.250214 291.050049,338.174805 280.792877,335.230255 
	C264.036407,330.419952 247.028336,329.543671 229.873550,332.980743 
	C228.436142,333.268768 227.040787,333.766785 225.369339,334.239868 
	C232.017624,352.686218 232.049454,371.073212 226.918060,389.490326 
	C216.938873,425.306488 182.733276,450.928223 146.271439,450.086670 
	C121.448502,449.513733 107.804161,432.996765 111.372665,408.219727 
	C113.759911,391.644440 122.440407,378.886932 134.564240,367.993958 
	C151.300323,352.956970 170.330353,341.370972 190.092270,330.869507 
	C191.407318,330.170654 192.701691,329.432892 194.758163,328.297974 
	C192.388062,326.270416 190.453751,324.365509 188.278290,322.794556 
	C172.342087,311.286926 155.955109,300.357025 140.529831,288.204651 
	C130.254532,280.109558 121.127396,270.500214 111.901222,261.158875 
	C108.328468,257.541504 105.694466,252.921265 102.985909,248.539612 
	C93.192444,232.696732 91.938698,216.197006 98.972366,198.850906 
	C107.626038,177.509628 121.641136,160.142593 138.336548,144.753433 
	C169.416824,116.104866 206.002640,96.603966 244.881195,80.891464 
	C272.343048,69.792953 300.635010,62.859089 330.403900,63.219372 
	C349.042572,63.444946 367.254333,66.249596 384.331085,74.234985 
	C395.385620,79.404305 404.953156,86.449142 411.827881,97.230804 
M150.143341,423.933319 
	C155.540085,423.253235 161.241379,423.464661 166.282089,421.742493 
	C191.330063,413.184967 209.990402,385.254242 208.645599,358.819244 
	C208.375046,353.500916 207.247803,348.226105 206.425522,342.280243 
	C187.322815,352.018372 170.533035,362.690155 156.944153,377.747437 
	C148.882462,386.680267 143.025970,396.847260 141.386276,409.016510 
	C140.355438,416.666992 142.794785,421.082764 150.143341,423.933319 
z"/>
<path fill="#CC679A" opacity="1.000000" stroke="none" 
	d="
M149.728882,423.854401 
	C142.794785,421.082764 140.355438,416.666992 141.386276,409.016510 
	C143.025970,396.847260 148.882462,386.680267 156.944153,377.747437 
	C170.533035,362.690155 187.322815,352.018372 206.425522,342.280243 
	C207.247803,348.226105 208.375046,353.500916 208.645599,358.819244 
	C209.990402,385.254242 191.330063,413.184967 166.282089,421.742493 
	C161.241379,423.464661 155.540085,423.253235 149.728882,423.854401 
z"/>
</svg>