<svg version="1.1" id="Layer_1" xmlns="http://www.w3.org/2000/svg" xmlns:xlink="http://www.w3.org/1999/xlink" x="0px" y="0px"
	 width="100%" viewBox="0 0 512 442" enable-background="new 0 0 512 442" xml:space="preserve">
<path fill="#41B883" opacity="1.000000" stroke="none" 
	d="
M1.000000,6.000000 
	C1.000000,4.340177 1.000000,2.680354 1.000000,1.000000 
	C34.687557,1.000000 68.375122,1.000000 102.533493,1.363635 
	C103.802849,3.368812 104.501221,5.068503 105.415237,6.643012 
	C115.940300,24.773882 126.504494,42.882027 137.045853,61.003452 
	C160.827423,101.885880 184.603424,142.771545 208.378952,183.657501 
	C223.281555,209.285019 238.174622,234.918106 253.088730,260.538910 
	C254.141479,262.347443 255.332596,264.075348 256.974915,266.648499 
	C258.520477,264.239594 259.624512,262.664551 260.582306,261.005127 
	C303.981537,185.812485 347.387054,110.623436 390.735352,35.401428 
	C397.297028,24.015034 403.585266,12.471077 410.000000,0.999999 
	C444.333344,1.000000 478.666656,1.000000 513.000000,1.000000 
	C513.000000,2.345809 513.000000,3.672942 512.745361,5.176194 
	C511.043121,7.114998 509.291840,8.709154 508.202942,10.670969 
	C504.459656,17.415031 501.097137,24.371857 497.304871,31.086876 
	C493.773804,37.339481 489.789795,43.334621 486.171753,49.540245 
	C482.963135,55.043667 480.102081,60.750202 476.876801,66.243309 
	C470.986298,76.275803 464.809082,86.141197 458.991425,96.214859 
	C451.451324,109.271072 444.222931,122.507034 436.716278,135.582916 
	C430.191681,146.948242 423.452972,158.190506 416.836212,169.503128 
	C413.563934,175.097656 410.459045,180.792618 407.088684,186.326599 
	C402.606598,193.685928 397.775543,200.835785 393.395691,208.253510 
	C388.563080,216.438065 384.108276,224.844849 379.419312,233.115372 
	C375.827576,239.450577 372.069855,245.691818 368.489471,252.033295 
	C362.986786,261.779449 357.674286,271.634064 352.093567,281.334778 
	C346.178162,291.617279 340.028442,301.764771 334.009949,311.988220 
	C329.325378,319.945740 324.709900,327.943909 320.017395,335.896667 
	C316.068268,342.589661 311.918823,349.167908 308.104095,355.935638 
	C304.372437,362.555969 301.137543,369.458344 297.353027,376.046417 
	C291.076660,386.972412 284.535461,397.746246 278.104156,408.583160 
	C274.092621,415.342682 269.956787,422.032288 266.107178,428.882721 
	C263.528839,433.470886 261.354889,438.286285 259.000000,443.000000 
	C257.933319,443.000000 256.866669,443.000000 255.709839,442.720215 
	C252.497681,437.439545 249.236908,432.519073 246.281921,427.421387 
	C239.718964,416.099518 233.300537,404.693756 226.839935,393.312714 
	C222.130112,385.015839 217.508453,376.668335 212.732513,368.409851 
	C208.923447,361.823303 204.836685,355.396545 201.064316,348.789764 
	C197.238174,342.088806 193.802261,335.163269 189.919266,328.496918 
	C182.058868,315.002106 173.978989,301.635376 166.054474,288.177612 
	C161.609665,280.629242 157.337402,272.979340 152.910126,265.420471 
	C147.330154,255.893570 141.537247,246.489029 136.084137,236.890839 
	C130.592529,227.224915 125.580254,217.285187 120.027466,207.655991 
	C115.725800,200.196381 110.735840,193.135544 106.374481,185.708008 
	C100.656807,175.970612 95.318352,166.011368 89.699203,156.215027 
	C85.492752,148.881561 81.013885,141.704254 76.815094,134.366562 
	C72.557175,126.925529 68.599327,119.312439 64.323174,111.882256 
	C56.299065,97.939682 48.164173,84.060600 40.026814,70.183571 
	C36.258854,63.757893 32.377762,57.398544 28.546375,51.010071 
	C24.432623,44.150784 20.193365,37.363037 16.235907,30.414762 
	C12.014517,23.003094 8.109681,15.411434 3.921587,7.980105 
	C3.404523,7.062631 1.995626,6.647769 1.000000,6.000000 
z"/>
<path fill="#000000" opacity="1.000000" stroke="none" 
	d="
M259.468658,443.000000 
	C261.354889,438.286285 263.528839,433.470886 266.107178,428.882721 
	C269.956787,422.032288 274.092621,415.342682 278.104156,408.583160 
	C284.535461,397.746246 291.076660,386.972412 297.353027,376.046417 
	C301.137543,369.458344 304.372437,362.555969 308.104095,355.935638 
	C311.918823,349.167908 316.068268,342.589661 320.017395,335.896667 
	C324.709900,327.943909 329.325378,319.945740 334.009949,311.988220 
	C340.028442,301.764771 346.178162,291.617279 352.093567,281.334778 
	C357.674286,271.634064 362.986786,261.779449 368.489471,252.033295 
	C372.069855,245.691818 375.827576,239.450577 379.419312,233.115372 
	C384.108276,224.844849 388.563080,216.438065 393.395691,208.253510 
	C397.775543,200.835785 402.606598,193.685928 407.088684,186.326599 
	C410.459045,180.792618 413.563934,175.097656 416.836212,169.503128 
	C423.452972,158.190506 430.191681,146.948242 436.716278,135.582916 
	C444.222931,122.507034 451.451324,109.271072 458.991425,96.214859 
	C464.809082,86.141197 470.986298,76.275803 476.876801,66.243309 
	C480.102081,60.750202 482.963135,55.043667 486.171753,49.540245 
	C489.789795,43.334621 493.773804,37.339481 497.304871,31.086876 
	C501.097137,24.371857 504.459656,17.415031 508.202942,10.670969 
	C509.291840,8.709154 511.043121,7.114998 512.745361,5.676157 
	C513.000000,151.574417 513.000000,297.148834 513.000000,443.000000 
	C428.645966,443.000000 344.291656,443.000000 259.468658,443.000000 
z"/>
<path fill="#000000" opacity="1.000000" stroke="none" 
	d="
M1.000000,6.468657 
	C1.995626,6.647769 3.404523,7.062631 3.921587,7.980105 
	C8.109681,15.411434 12.014517,23.003094 16.235907,30.414762 
	C20.193365,37.363037 24.432623,44.150784 28.546375,51.010071 
	C32.377762,57.398544 36.258854,63.757893 40.026814,70.183571 
	C48.164173,84.060600 56.299065,97.939682 64.323174,111.882256 
	C68.599327,119.312439 72.557175,126.925529 76.815094,134.366562 
	C81.013885,141.704254 85.492752,148.881561 89.699203,156.215027 
	C95.318352,166.011368 100.656807,175.970612 106.374481,185.708008 
	C110.735840,193.135544 115.725800,200.196381 120.027466,207.655991 
	C125.580254,217.285187 130.592529,227.224915 136.084137,236.890839 
	C141.537247,246.489029 147.330154,255.893570 152.910126,265.420471 
	C157.337402,272.979340 161.609665,280.629242 166.054474,288.177612 
	C173.978989,301.635376 182.058868,315.002106 189.919266,328.496918 
	C193.802261,335.163269 197.238174,342.088806 201.064316,348.789764 
	C204.836685,355.396545 208.923447,361.823303 212.732513,368.409851 
	C217.508453,376.668335 222.130112,385.015839 226.839935,393.312714 
	C233.300537,404.693756 239.718964,416.099518 246.281921,427.421387 
	C249.236908,432.519073 252.497681,437.439545 255.309845,442.720215 
	C170.386963,443.000000 85.773926,443.000000 1.000000,443.000000 
	C1.000000,297.645813 1.000000,152.291565 1.000000,6.468657 
z"/>
<path fill="#35495E" opacity="1.000000" stroke="none" 
	d="
M409.531342,0.999999 
	C403.585266,12.471077 397.297028,24.015034 390.735352,35.401428 
	C347.387054,110.623436 303.981537,185.812485 260.582306,261.005127 
	C259.624512,262.664551 258.520477,264.239594 256.974915,266.648499 
	C255.332596,264.075348 254.141479,262.347443 253.088730,260.538910 
	C238.174622,234.918106 223.281555,209.285019 208.378952,183.657501 
	C184.603424,142.771545 160.827423,101.885880 137.045853,61.003452 
	C126.504494,42.882027 115.940300,24.773882 105.415237,6.643012 
	C104.501221,5.068503 103.802849,3.368812 103.002151,1.363635 
	C134.354233,1.000000 165.708450,1.000000 197.571045,1.354416 
	C217.560699,34.854881 237.041992,68.000931 256.570923,101.228035 
	C257.672760,100.432587 258.042419,100.297951 258.194977,100.036575 
	C264.733246,88.835915 271.330231,77.668442 277.749603,66.399811 
	C283.198181,56.835335 288.367218,47.111778 293.796448,37.536018 
	C297.525757,30.958424 301.627502,24.590544 305.304657,17.985226 
	C308.396545,12.431166 311.115784,6.669661 314.000000,0.999996 
	C345.687561,1.000000 377.375122,1.000000 409.531342,0.999999 
z"/>
<path fill="#000000" opacity="1.000000" stroke="none" 
	d="
M313.531342,0.999996 
	C311.115784,6.669661 308.396545,12.431166 305.304657,17.985226 
	C301.627502,24.590544 297.525757,30.958424 293.796448,37.536018 
	C288.367218,47.111778 283.198181,56.835335 277.749603,66.399811 
	C271.330231,77.668442 264.733246,88.835915 258.194977,100.036575 
	C258.042419,100.297951 257.672760,100.432587 256.570923,101.228035 
	C237.041992,68.000931 217.560699,34.854881 198.039703,1.354416 
	C236.354233,1.000000 274.708466,1.000000 313.531342,0.999996 
z"/>
</svg>